<mxfile modified="2022-10-30T05:30:45.820Z" host="Electron" agent="5.0 (Windows NT 10.0; Win64; x64) AppleWebKit/537.36 (KHTML, like Gecko) draw.io/20.3.0 Chrome/104.0.5112.114 Electron/20.1.3 Safari/537.36" etag="U_Lm97NkgNca_KYme6fn" compressed="false" version="20.3.0" type="device">
  <diagram id="PE4HCq6MsQ6ciajZdD9A" name="User Context/Users/01">
    <mxGraphModel dx="782" dy="549" grid="1" gridSize="10" guides="1" tooltips="1" connect="1" arrows="1" fold="1" page="1" pageScale="1" pageWidth="827" pageHeight="1169" math="0" shadow="0">
      <root>
        <mxCell id="Q86lefpzNcZdZE9YdRhr-0" />
        <mxCell id="-E6RP9s6omXzPXh8ANte-2" value="Diagram" parent="Q86lefpzNcZdZE9YdRhr-0" />
        <mxCell id="3hCGqQJRQw3c2MpjyFq_-4" value="" style="image;html=1;labelBackgroundColor=#ffffff;image=img/lib/clip_art/people/Worker_Woman_128x128.png;strokeColor=#CCCCCC;strokeWidth=1;fillColor=none;gradientColor=#ffffff;fontSize=10;fontColor=#3333FF;align=center;" parent="-E6RP9s6omXzPXh8ANte-2" vertex="1">
          <mxGeometry x="120" y="200" width="80" height="80" as="geometry" />
        </mxCell>
        <mxCell id="3hCGqQJRQw3c2MpjyFq_-5" value="" style="ellipse;whiteSpace=wrap;html=1;aspect=fixed;strokeColor=#CCCCCC;strokeWidth=10;fillColor=none;gradientColor=#ffffff;fontSize=10;fontColor=#3333FF;align=center;" parent="-E6RP9s6omXzPXh8ANte-2" vertex="1">
          <mxGeometry x="120" y="200" width="80" height="80" as="geometry" />
        </mxCell>
        <mxCell id="3hCGqQJRQw3c2MpjyFq_-6" value="" style="endArrow=none;html=1;fontSize=10;fontColor=#3333FF;fillColor=#f5f5f5;strokeColor=#666666;strokeWidth=3;" parent="-E6RP9s6omXzPXh8ANte-2" edge="1">
          <mxGeometry width="50" height="50" relative="1" as="geometry">
            <mxPoint x="120" y="320" as="sourcePoint" />
            <mxPoint x="680" y="320" as="targetPoint" />
          </mxGeometry>
        </mxCell>
        <mxCell id="3hCGqQJRQw3c2MpjyFq_-9" value="Typical Day:&amp;nbsp;" style="text;html=1;align=center;verticalAlign=middle;resizable=0;points=[];;autosize=1;fontSize=12;fontColor=#000000;" parent="-E6RP9s6omXzPXh8ANte-2" vertex="1">
          <mxGeometry x="120" y="320" width="80" height="20" as="geometry" />
        </mxCell>
        <mxCell id="3hCGqQJRQw3c2MpjyFq_-10" value="" style="endArrow=none;html=1;fontSize=10;fontColor=#3333FF;fillColor=#f5f5f5;strokeColor=#666666;strokeWidth=3;" parent="-E6RP9s6omXzPXh8ANte-2" edge="1">
          <mxGeometry width="50" height="50" relative="1" as="geometry">
            <mxPoint x="120" y="401.58" as="sourcePoint" />
            <mxPoint x="680" y="401.58" as="targetPoint" />
          </mxGeometry>
        </mxCell>
        <mxCell id="3hCGqQJRQw3c2MpjyFq_-11" value="Tasks:" style="text;html=1;align=center;verticalAlign=middle;resizable=0;points=[];;autosize=1;fontSize=12;fontColor=#000000;" parent="-E6RP9s6omXzPXh8ANte-2" vertex="1">
          <mxGeometry x="120" y="401.58" width="50" height="20" as="geometry" />
        </mxCell>
        <mxCell id="3hCGqQJRQw3c2MpjyFq_-12" value="" style="endArrow=none;html=1;fontSize=10;fontColor=#3333FF;fillColor=#f5f5f5;strokeColor=#666666;strokeWidth=3;" parent="-E6RP9s6omXzPXh8ANte-2" edge="1">
          <mxGeometry width="50" height="50" relative="1" as="geometry">
            <mxPoint x="120" y="521.58" as="sourcePoint" />
            <mxPoint x="680" y="521.58" as="targetPoint" />
          </mxGeometry>
        </mxCell>
        <mxCell id="3hCGqQJRQw3c2MpjyFq_-13" value="Motivations:" style="text;html=1;align=center;verticalAlign=middle;resizable=0;points=[];;autosize=1;fontSize=12;fontColor=#000000;" parent="-E6RP9s6omXzPXh8ANte-2" vertex="1">
          <mxGeometry x="310" y="401.58" width="80" height="20" as="geometry" />
        </mxCell>
        <mxCell id="3hCGqQJRQw3c2MpjyFq_-14" value="Frustrations:" style="text;html=1;align=center;verticalAlign=middle;resizable=0;points=[];;autosize=1;fontSize=12;fontColor=#000000;" parent="-E6RP9s6omXzPXh8ANte-2" vertex="1">
          <mxGeometry x="490" y="401.58" width="80" height="20" as="geometry" />
        </mxCell>
        <mxCell id="3hCGqQJRQw3c2MpjyFq_-15" value="" style="endArrow=none;html=1;fontSize=10;fontColor=#3333FF;fillColor=#f5f5f5;strokeColor=#666666;strokeWidth=3;" parent="-E6RP9s6omXzPXh8ANte-2" edge="1">
          <mxGeometry width="50" height="50" relative="1" as="geometry">
            <mxPoint x="120" y="641.58" as="sourcePoint" />
            <mxPoint x="680" y="641.58" as="targetPoint" />
          </mxGeometry>
        </mxCell>
        <mxCell id="3hCGqQJRQw3c2MpjyFq_-16" value="Aspirations:" style="text;html=1;align=center;verticalAlign=middle;resizable=0;points=[];;autosize=1;fontSize=12;fontColor=#000000;" parent="-E6RP9s6omXzPXh8ANte-2" vertex="1">
          <mxGeometry x="120" y="521.58" width="80" height="20" as="geometry" />
        </mxCell>
        <mxCell id="3hCGqQJRQw3c2MpjyFq_-17" value="Relationships:" style="text;html=1;align=center;verticalAlign=middle;resizable=0;points=[];;autosize=1;fontSize=12;fontColor=#000000;" parent="-E6RP9s6omXzPXh8ANte-2" vertex="1">
          <mxGeometry x="400" y="521.58" width="90" height="20" as="geometry" />
        </mxCell>
        <mxCell id="3hCGqQJRQw3c2MpjyFq_-18" value="" style="endArrow=none;html=1;fontSize=12;fontColor=#000000;" parent="-E6RP9s6omXzPXh8ANte-2" edge="1">
          <mxGeometry width="50" height="50" relative="1" as="geometry">
            <mxPoint x="300" y="400" as="sourcePoint" />
            <mxPoint x="300" y="522" as="targetPoint" />
          </mxGeometry>
        </mxCell>
        <mxCell id="3hCGqQJRQw3c2MpjyFq_-19" value="" style="endArrow=none;html=1;fontSize=12;fontColor=#000000;entryX=0.997;entryY=-0.05;entryDx=0;entryDy=0;entryPerimeter=0;" parent="-E6RP9s6omXzPXh8ANte-2" target="3hCGqQJRQw3c2MpjyFq_-17" edge="1">
          <mxGeometry width="50" height="50" relative="1" as="geometry">
            <mxPoint x="490" y="403" as="sourcePoint" />
            <mxPoint x="510" y="522" as="targetPoint" />
          </mxGeometry>
        </mxCell>
        <mxCell id="3hCGqQJRQw3c2MpjyFq_-20" value="" style="endArrow=none;html=1;fontSize=12;fontColor=#000000;exitX=-0.011;exitY=-0.05;exitDx=0;exitDy=0;exitPerimeter=0;" parent="-E6RP9s6omXzPXh8ANte-2" source="3hCGqQJRQw3c2MpjyFq_-17" edge="1">
          <mxGeometry width="50" height="50" relative="1" as="geometry">
            <mxPoint x="329.03999999999996" y="409.99999999999994" as="sourcePoint" />
            <mxPoint x="400" y="641.58" as="targetPoint" />
          </mxGeometry>
        </mxCell>
        <mxCell id="3hCGqQJRQw3c2MpjyFq_-21" value="" style="shape=image;html=1;verticalAlign=top;verticalLabelPosition=bottom;labelBackgroundColor=#ffffff;imageAspect=0;aspect=fixed;image=https://cdn2.iconfinder.com/data/icons/office-38/24/office-37-128.png;strokeColor=#CCCCCC;strokeWidth=10;fillColor=none;gradientColor=#ffffff;fontSize=12;fontColor=#000000;align=center;" parent="-E6RP9s6omXzPXh8ANte-2" vertex="1">
          <mxGeometry x="140" y="348" width="22" height="22" as="geometry" />
        </mxCell>
        <mxCell id="3hCGqQJRQw3c2MpjyFq_-22" value="" style="shape=image;html=1;verticalAlign=top;verticalLabelPosition=bottom;labelBackgroundColor=#ffffff;imageAspect=0;aspect=fixed;image=https://cdn3.iconfinder.com/data/icons/outline-amenities-icon-set/64/Breakfast-128.png;strokeColor=#CCCCCC;strokeWidth=10;fillColor=none;gradientColor=#ffffff;fontSize=12;fontColor=#000000;align=center;" parent="-E6RP9s6omXzPXh8ANte-2" vertex="1">
          <mxGeometry x="214.46" y="346.5" width="22" height="22" as="geometry" />
        </mxCell>
        <mxCell id="3hCGqQJRQw3c2MpjyFq_-25" value="" style="shape=image;html=1;verticalAlign=top;verticalLabelPosition=bottom;labelBackgroundColor=#ffffff;imageAspect=0;aspect=fixed;image=https://cdn3.iconfinder.com/data/icons/transport-icons-2/512/BT_c3front-128.png;strokeColor=#CCCCCC;strokeWidth=10;fillColor=none;gradientColor=#ffffff;fontSize=12;fontColor=#000000;align=center;" parent="-E6RP9s6omXzPXh8ANte-2" vertex="1">
          <mxGeometry x="274.46" y="340" width="31" height="31" as="geometry" />
        </mxCell>
        <mxCell id="3hCGqQJRQw3c2MpjyFq_-26" value="Name:" style="text;html=1;align=left;verticalAlign=middle;resizable=0;points=[];;autosize=1;fontSize=12;fontColor=#000000;" parent="-E6RP9s6omXzPXh8ANte-2" vertex="1">
          <mxGeometry x="280" y="179.99999999999997" width="50" height="20" as="geometry" />
        </mxCell>
        <mxCell id="3hCGqQJRQw3c2MpjyFq_-27" value="Age:" style="text;html=1;align=left;verticalAlign=middle;resizable=0;points=[];;autosize=1;fontSize=12;fontColor=#000000;" parent="-E6RP9s6omXzPXh8ANte-2" vertex="1">
          <mxGeometry x="280" y="219.99999999999997" width="40" height="20" as="geometry" />
        </mxCell>
        <mxCell id="3hCGqQJRQw3c2MpjyFq_-28" value="Gender:" style="text;html=1;align=left;verticalAlign=middle;resizable=0;points=[];;autosize=1;fontSize=12;fontColor=#000000;" parent="-E6RP9s6omXzPXh8ANte-2" vertex="1">
          <mxGeometry x="280" y="199.99999999999997" width="60" height="20" as="geometry" />
        </mxCell>
        <mxCell id="3hCGqQJRQw3c2MpjyFq_-29" value="Occupation:" style="text;html=1;align=left;verticalAlign=middle;resizable=0;points=[];;autosize=1;fontSize=12;fontColor=#000000;" parent="-E6RP9s6omXzPXh8ANte-2" vertex="1">
          <mxGeometry x="280" y="239.99999999999997" width="80" height="20" as="geometry" />
        </mxCell>
        <mxCell id="3hCGqQJRQw3c2MpjyFq_-30" value="Says:" style="text;html=1;align=left;verticalAlign=middle;resizable=0;points=[];;autosize=1;fontSize=12;fontColor=#000000;" parent="-E6RP9s6omXzPXh8ANte-2" vertex="1">
          <mxGeometry x="440" y="179.99999999999997" width="50" height="20" as="geometry" />
        </mxCell>
        <mxCell id="3hCGqQJRQw3c2MpjyFq_-31" value="Does:" style="text;html=1;align=left;verticalAlign=middle;resizable=0;points=[];;autosize=1;fontSize=12;fontColor=#000000;" parent="-E6RP9s6omXzPXh8ANte-2" vertex="1">
          <mxGeometry x="440" y="219.99999999999997" width="50" height="20" as="geometry" />
        </mxCell>
        <mxCell id="3hCGqQJRQw3c2MpjyFq_-32" value="Thinks:" style="text;html=1;align=left;verticalAlign=middle;resizable=0;points=[];;autosize=1;fontSize=12;fontColor=#000000;" parent="-E6RP9s6omXzPXh8ANte-2" vertex="1">
          <mxGeometry x="440" y="199.99999999999997" width="50" height="20" as="geometry" />
        </mxCell>
        <mxCell id="3hCGqQJRQw3c2MpjyFq_-33" value="Feels:" style="text;html=1;align=left;verticalAlign=middle;resizable=0;points=[];;autosize=1;fontSize=12;fontColor=#000000;" parent="-E6RP9s6omXzPXh8ANte-2" vertex="1">
          <mxGeometry x="440" y="239.99999999999997" width="50" height="20" as="geometry" />
        </mxCell>
        <mxCell id="3hCGqQJRQw3c2MpjyFq_-34" value="Goals:" style="text;html=1;align=left;verticalAlign=middle;resizable=0;points=[];;autosize=1;fontSize=12;fontColor=#000000;" parent="-E6RP9s6omXzPXh8ANte-2" vertex="1">
          <mxGeometry x="440" y="260" width="50" height="20" as="geometry" />
        </mxCell>
        <mxCell id="3hCGqQJRQw3c2MpjyFq_-35" value="Summary:" style="text;html=1;align=left;verticalAlign=middle;resizable=0;points=[];;autosize=1;fontSize=12;fontColor=#000000;" parent="-E6RP9s6omXzPXh8ANte-2" vertex="1">
          <mxGeometry x="280" y="260" width="70" height="20" as="geometry" />
        </mxCell>
        <mxCell id="3hCGqQJRQw3c2MpjyFq_-36" value="Skills" style="text;html=1;align=left;verticalAlign=middle;resizable=0;points=[];;autosize=1;fontSize=12;fontColor=#000000;" parent="-E6RP9s6omXzPXh8ANte-2" vertex="1">
          <mxGeometry x="590" y="179.99999999999997" width="40" height="20" as="geometry" />
        </mxCell>
        <mxCell id="3hCGqQJRQw3c2MpjyFq_-37" value="" style="endArrow=none;html=1;fontSize=10;fontColor=#3333FF;fillColor=#f5f5f5;strokeColor=#666666;strokeWidth=3;" parent="-E6RP9s6omXzPXh8ANte-2" edge="1">
          <mxGeometry width="50" height="50" relative="1" as="geometry">
            <mxPoint x="120" y="761.5799999999999" as="sourcePoint" />
            <mxPoint x="680" y="761.5799999999999" as="targetPoint" />
          </mxGeometry>
        </mxCell>
        <mxCell id="3hCGqQJRQw3c2MpjyFq_-38" value="" style="endArrow=none;html=1;fontSize=12;fontColor=#000000;exitX=-0.011;exitY=-0.05;exitDx=0;exitDy=0;exitPerimeter=0;" parent="-E6RP9s6omXzPXh8ANte-2" edge="1">
          <mxGeometry width="50" height="50" relative="1" as="geometry">
            <mxPoint x="399.01" y="640.58" as="sourcePoint" />
            <mxPoint x="400" y="761.5799999999999" as="targetPoint" />
          </mxGeometry>
        </mxCell>
        <mxCell id="3hCGqQJRQw3c2MpjyFq_-39" value="Capabilities:" style="text;html=1;align=center;verticalAlign=middle;resizable=0;points=[];;autosize=1;fontSize=12;fontColor=#000000;" parent="-E6RP9s6omXzPXh8ANte-2" vertex="1">
          <mxGeometry x="400" y="640" width="80" height="20" as="geometry" />
        </mxCell>
        <mxCell id="3hCGqQJRQw3c2MpjyFq_-40" value="Communication:" style="text;html=1;align=center;verticalAlign=middle;resizable=0;points=[];;autosize=1;fontSize=12;fontColor=#000000;" parent="-E6RP9s6omXzPXh8ANte-2" vertex="1">
          <mxGeometry x="400" y="660" width="100" height="20" as="geometry" />
        </mxCell>
        <mxCell id="3hCGqQJRQw3c2MpjyFq_-41" value="Team Empathy:" style="text;html=1;align=center;verticalAlign=middle;resizable=0;points=[];;autosize=1;fontSize=12;fontColor=#000000;" parent="-E6RP9s6omXzPXh8ANte-2" vertex="1">
          <mxGeometry x="400" y="680" width="100" height="20" as="geometry" />
        </mxCell>
        <mxCell id="3hCGqQJRQw3c2MpjyFq_-42" value="Interests:" style="text;html=1;align=center;verticalAlign=middle;resizable=0;points=[];;autosize=1;fontSize=12;fontColor=#000000;" parent="-E6RP9s6omXzPXh8ANte-2" vertex="1">
          <mxGeometry x="725" y="610" width="60" height="20" as="geometry" />
        </mxCell>
        <mxCell id="3hCGqQJRQw3c2MpjyFq_-43" value="Needs:" style="text;html=1;align=center;verticalAlign=middle;resizable=0;points=[];;autosize=1;fontSize=12;fontColor=#000000;" parent="-E6RP9s6omXzPXh8ANte-2" vertex="1">
          <mxGeometry x="730" y="650" width="50" height="20" as="geometry" />
        </mxCell>
        <mxCell id="3hCGqQJRQw3c2MpjyFq_-44" value="Behaviours:" style="text;html=1;align=center;verticalAlign=middle;resizable=0;points=[];;autosize=1;fontSize=12;fontColor=#000000;" parent="-E6RP9s6omXzPXh8ANte-2" vertex="1">
          <mxGeometry x="720" y="690" width="80" height="20" as="geometry" />
        </mxCell>
        <mxCell id="3hCGqQJRQw3c2MpjyFq_-45" value="Values:" style="text;html=1;align=center;verticalAlign=middle;resizable=0;points=[];;autosize=1;fontSize=12;fontColor=#000000;" parent="-E6RP9s6omXzPXh8ANte-2" vertex="1">
          <mxGeometry x="735" y="740" width="50" height="20" as="geometry" />
        </mxCell>
        <mxCell id="3hCGqQJRQw3c2MpjyFq_-47" value="" style="shape=image;html=1;verticalAlign=top;verticalLabelPosition=bottom;labelBackgroundColor=#ffffff;imageAspect=0;aspect=fixed;image=https://cdn2.iconfinder.com/data/icons/kitchen-appliances-computers-and-electronics/32/Appliances-06-128.png;strokeColor=#CCCCCC;strokeWidth=10;fillColor=none;gradientColor=#ffffff;fontSize=12;fontColor=#000000;align=left;" parent="-E6RP9s6omXzPXh8ANte-2" vertex="1">
          <mxGeometry x="244.46" y="342.5" width="26" height="26" as="geometry" />
        </mxCell>
        <mxCell id="3hCGqQJRQw3c2MpjyFq_-54" value="" style="shape=image;html=1;verticalAlign=top;verticalLabelPosition=bottom;labelBackgroundColor=#ffffff;imageAspect=0;aspect=fixed;image=https://cdn2.iconfinder.com/data/icons/kitchen-appliances-computers-and-electronics/32/Appliances-06-128.png;strokeColor=#CCCCCC;strokeWidth=10;fillColor=none;gradientColor=#ffffff;fontSize=12;fontColor=#000000;align=left;" parent="-E6RP9s6omXzPXh8ANte-2" vertex="1">
          <mxGeometry x="498.46000000000004" y="341.5" width="26" height="26" as="geometry" />
        </mxCell>
        <mxCell id="3hCGqQJRQw3c2MpjyFq_-55" value="" style="shape=image;html=1;verticalAlign=top;verticalLabelPosition=bottom;labelBackgroundColor=#ffffff;imageAspect=0;aspect=fixed;image=https://cdn0.iconfinder.com/data/icons/business-management-3-4/256/m-05-128.png;strokeColor=#CCCCCC;strokeWidth=10;fillColor=none;gradientColor=#ffffff;fontSize=12;fontColor=#000000;align=left;" parent="-E6RP9s6omXzPXh8ANte-2" vertex="1">
          <mxGeometry x="471.46000000000004" y="343.5" width="22" height="22" as="geometry" />
        </mxCell>
        <mxCell id="3hCGqQJRQw3c2MpjyFq_-56" value="" style="outlineConnect=0;gradientColor=none;fontColor=#545B64;strokeColor=none;fillColor=#879196;dashed=0;verticalLabelPosition=bottom;verticalAlign=top;align=center;html=1;fontSize=12;fontStyle=0;aspect=fixed;shape=mxgraph.aws4.illustration_desktop;pointerEvents=1" parent="-E6RP9s6omXzPXh8ANte-2" vertex="1">
          <mxGeometry x="533.5600000000001" y="344.5" width="21.98" height="20" as="geometry" />
        </mxCell>
        <mxCell id="3hCGqQJRQw3c2MpjyFq_-58" value="" style="shape=image;html=1;verticalAlign=top;verticalLabelPosition=bottom;labelBackgroundColor=#ffffff;imageAspect=0;aspect=fixed;image=https://cdn2.iconfinder.com/data/icons/food-drink-10/24/food-drink-09-128.png;strokeColor=#CCCCCC;strokeWidth=10;fillColor=none;gradientColor=#ffffff;fontSize=12;fontColor=#000000;align=left;" parent="-E6RP9s6omXzPXh8ANte-2" vertex="1">
          <mxGeometry x="405" y="343.5" width="20" height="20" as="geometry" />
        </mxCell>
        <mxCell id="3hCGqQJRQw3c2MpjyFq_-59" value="" style="shape=image;html=1;verticalAlign=top;verticalLabelPosition=bottom;labelBackgroundColor=#ffffff;imageAspect=0;aspect=fixed;image=https://cdn2.iconfinder.com/data/icons/kitchen-appliances-computers-and-electronics/32/Appliances-06-128.png;strokeColor=#CCCCCC;strokeWidth=10;fillColor=none;gradientColor=#ffffff;fontSize=12;fontColor=#000000;align=left;" parent="-E6RP9s6omXzPXh8ANte-2" vertex="1">
          <mxGeometry x="434" y="341.5" width="26" height="26" as="geometry" />
        </mxCell>
        <mxCell id="3hCGqQJRQw3c2MpjyFq_-60" value="" style="shape=image;html=1;verticalAlign=top;verticalLabelPosition=bottom;labelBackgroundColor=#ffffff;imageAspect=0;aspect=fixed;image=https://cdn3.iconfinder.com/data/icons/streamline-icon-set-free-pack/48/Streamline-92-128.png;strokeColor=#CCCCCC;strokeWidth=10;fillColor=none;gradientColor=#ffffff;fontSize=12;fontColor=#000000;align=left;" parent="-E6RP9s6omXzPXh8ANte-2" vertex="1">
          <mxGeometry x="182" y="348.88" width="18" height="18" as="geometry" />
        </mxCell>
        <mxCell id="3hCGqQJRQw3c2MpjyFq_-61" value="" style="shape=image;html=1;verticalAlign=top;verticalLabelPosition=bottom;labelBackgroundColor=#ffffff;imageAspect=0;aspect=fixed;image=https://cdn3.iconfinder.com/data/icons/transport-icons-2/512/BT_c3front-128.png;strokeColor=#CCCCCC;strokeWidth=10;fillColor=none;gradientColor=#ffffff;fontSize=12;fontColor=#000000;align=center;" parent="-E6RP9s6omXzPXh8ANte-2" vertex="1">
          <mxGeometry x="570.04" y="339" width="31" height="31" as="geometry" />
        </mxCell>
        <mxCell id="3hCGqQJRQw3c2MpjyFq_-63" value="" style="shape=image;html=1;verticalAlign=top;verticalLabelPosition=bottom;labelBackgroundColor=#ffffff;imageAspect=0;aspect=fixed;image=https://cdn2.iconfinder.com/data/icons/maki/100/school-128.png;strokeColor=#CCCCCC;strokeWidth=10;fillColor=none;gradientColor=#ffffff;fontSize=12;fontColor=#000000;align=left;" parent="-E6RP9s6omXzPXh8ANte-2" vertex="1">
          <mxGeometry x="609" y="344.5" width="21" height="21" as="geometry" />
        </mxCell>
        <mxCell id="3hCGqQJRQw3c2MpjyFq_-64" value="" style="shape=image;html=1;verticalAlign=top;verticalLabelPosition=bottom;labelBackgroundColor=#ffffff;imageAspect=0;aspect=fixed;image=https://cdn3.iconfinder.com/data/icons/streamline-icon-set-free-pack/48/Streamline-100-128.png;strokeColor=#CCCCCC;strokeWidth=10;fillColor=none;gradientColor=#ffffff;fontSize=12;fontColor=#000000;align=left;" parent="-E6RP9s6omXzPXh8ANte-2" vertex="1">
          <mxGeometry x="640" y="345.5" width="23" height="23" as="geometry" />
        </mxCell>
        <mxCell id="3hCGqQJRQw3c2MpjyFq_-65" value="" style="pointerEvents=1;shadow=0;dashed=0;html=1;strokeColor=none;fillColor=#505050;labelPosition=center;verticalLabelPosition=bottom;verticalAlign=top;outlineConnect=0;align=center;shape=mxgraph.office.devices.tv;fontSize=12;fontColor=#000000;" parent="-E6RP9s6omXzPXh8ANte-2" vertex="1">
          <mxGeometry x="315" y="347" width="25" height="21" as="geometry" />
        </mxCell>
        <mxCell id="-E6RP9s6omXzPXh8ANte-0" value="Title/Diagram" parent="Q86lefpzNcZdZE9YdRhr-0" />
        <mxCell id="-E6RP9s6omXzPXh8ANte-3" value="&lt;font style=&quot;font-size: 12px&quot;&gt;&lt;span&gt;Diagram: &lt;/span&gt;User Context - User Journey&amp;nbsp;&lt;/font&gt;" style="text;strokeColor=none;fillColor=none;html=1;fontSize=24;fontStyle=2;verticalAlign=middle;align=left;shadow=0;glass=0;comic=0;opacity=30;fontColor=#808080;" parent="-E6RP9s6omXzPXh8ANte-0" vertex="1">
          <mxGeometry x="120" y="840" width="520" height="20" as="geometry" />
        </mxCell>
        <mxCell id="-E6RP9s6omXzPXh8ANte-4" value="About" parent="Q86lefpzNcZdZE9YdRhr-0" />
      </root>
    </mxGraphModel>
  </diagram>
</mxfile>
